<?xml version="1.0" encoding="UTF-8" standalone="no"?>
<!-- Created with Inkscape (http://www.inkscape.org/) -->

<svg
   xmlns:dc="http://purl.org/dc/elements/1.1/"
   xmlns:cc="http://creativecommons.org/ns#"
   xmlns:rdf="http://www.w3.org/1999/02/22-rdf-syntax-ns#"
   xmlns:svg="http://www.w3.org/2000/svg"
   xmlns="http://www.w3.org/2000/svg"
   xmlns:sodipodi="http://sodipodi.sourceforge.net/DTD/sodipodi-0.dtd"
   xmlns:inkscape="http://www.inkscape.org/namespaces/inkscape"
   width="60mm"
   height="170mm"
   viewBox="0 0 60 170"
   version="1.1"
   id="svg8"
   inkscape:version="0.92.3 (2405546, 2018-03-11)"
   sodipodi:docname="oven voor anneline versie 1.svg">
  <defs
     id="defs2" />
  <sodipodi:namedview
     id="base"
     pagecolor="#ffffff"
     bordercolor="#666666"
     borderopacity="1.0"
     inkscape:pageopacity="0.0"
     inkscape:pageshadow="2"
     inkscape:zoom="1.979899"
     inkscape:cx="891.3254"
     inkscape:cy="148.18954"
     inkscape:document-units="mm"
     inkscape:current-layer="layer1"
     showgrid="false"
     fit-margin-top="0"
     fit-margin-left="0"
     fit-margin-right="0"
     fit-margin-bottom="0"
     inkscape:window-width="1920"
     inkscape:window-height="1016"
     inkscape:window-x="0"
     inkscape:window-y="27"
     inkscape:window-maximized="1" />
  <metadata
     id="metadata5">
    <rdf:RDF>
      <cc:Work
         rdf:about="">
        <dc:format>image/svg+xml</dc:format>
        <dc:type
           rdf:resource="http://purl.org/dc/dcmitype/StillImage" />
        <dc:title></dc:title>
      </cc:Work>
    </rdf:RDF>
  </metadata>
  <g
     inkscape:label="Laag 1"
     inkscape:groupmode="layer"
     id="layer1"
     transform="translate(-26.458332,-32.505943)">
    <path
       style="fill:#ff5555;fill-opacity:0.63076926;stroke:none;stroke-width:0.5;stroke-miterlimit:4;stroke-dasharray:none;stroke-dashoffset:0;stroke-opacity:1"
       d="m 237.35495,132.64223 c -0.33675,0.005 -0.58446,0.68342 -0.92035,0.70797 -0.3359,0.0246 -0.68,-0.61041 -1.0139,-0.56638 -0.33389,0.044 -0.50173,0.7464 -0.8325,0.80977 -0.33077,0.0634 -0.74576,-0.52743 -1.07229,-0.44493 -0.32652,0.0825 -0.41159,0.79989 -0.73277,0.90124 -0.32118,0.10134 -0.8025,-0.43714 -1.11725,-0.3173 -0.31474,0.11985 -0.31546,0.84184 -0.6227,0.97979 -0.30723,0.13794 -0.848,-0.34109 -1.1467,-0.18552 -0.2987,0.15558 -0.21572,0.87325 -0.50487,1.04593 -0.28915,0.17268 -0.88152,-0.24088 -1.16014,-0.0517 -0.27862,0.18921 -0.11319,0.89253 -0.38034,1.09761 -0.26714,0.20509 -0.9033,-0.13655 -1.15807,0.0837 -0.25477,0.22027 -0.009,0.89907 -0.25011,1.13378 -0.24153,0.23471 -0.91354,-0.0303 -1.14102,0.21807 -0.22747,0.24836 0.0959,0.89381 -0.11679,1.15497 -0.21265,0.26116 -0.91083,0.0757 -1.10794,0.34882 -0.1971,0.27308 0.19898,0.87708 0.0181,1.16117 -0.1809,0.28408 -0.89582,0.18078 -1.05989,0.4749 -0.16406,0.29413 0.29966,0.84819 0.15297,1.15135 -0.14669,0.30317 -0.86854,0.28362 -0.99736,0.5948 -0.12881,0.31118 0.39576,0.80737 0.28526,1.12551 -0.11051,0.31815 -0.83009,0.38239 -0.92191,0.70642 -0.0918,0.32403 0.48675,0.75639 0.41393,1.0852 -0.0728,0.32883 -0.77997,0.47573 -0.83354,0.80822 -0.0536,0.3325 0.57159,0.69486 0.53743,1.02992 -0.0342,0.33505 -0.71919,0.56321 -0.73381,0.89968 -0.0146,0.33647 0.64822,0.62392 0.65319,0.96067 0.005,0.33675 -0.64931,0.64286 -0.62476,0.97875 0.0245,0.33589 0.71613,0.54408 0.76016,0.87798 0.044,0.3339 -0.5698,0.71413 -0.50643,1.0449 0.0634,0.33077 0.7743,0.4574 0.85679,0.78393 0.0825,0.32653 -0.48323,0.7754 -0.38188,1.09658 0.10134,0.32117 0.82272,0.36428 0.94257,0.67902 0.11985,0.31475 -0.39012,0.82654 -0.25218,1.13378 0.13795,0.30724 0.85883,0.26613 1.01441,0.56483 0.15558,0.2987 -0.29102,0.86633 -0.11834,1.15548 0.17268,0.28915 0.88412,0.16477 1.07332,0.44339 0.1892,0.27861 -0.18906,0.89402 0.016,1.16116 0.20508,0.26715 0.89749,0.061 1.11776,0.31575 0.22027,0.25477 -0.0838,0.90982 0.1509,1.15135 0.2347,0.24153 0.89834,-0.0435 1.1467,0.18397 0.24835,0.22747 0.0225,0.91338 0.2837,1.12603 0.26116,0.21265 0.88705,-0.1475 1.16014,0.0496 0.27308,0.1971 0.12829,0.90482 0.41237,1.08572 0.28409,0.18089 0.86395,-0.24985 1.15807,-0.0858 0.29412,0.16407 0.23272,0.88374 0.53589,1.03043 0.30316,0.14669 0.82932,-0.34844 1.1405,-0.21962 0.31117,0.12881 0.33349,0.85119 0.65163,0.9617 0.31815,0.1105 0.78289,-0.44219 1.10692,-0.35037 0.32403,0.0918 0.4303,0.8062 0.75912,0.87902 0.32882,0.0728 0.72636,-0.53004 1.05885,-0.47646 0.3325,0.0536 0.52071,0.75081 0.85576,0.78497 0.33505,0.0342 0.66037,-0.61097 0.99684,-0.59635 0.33647,0.0146 0.60428,0.68555 0.94103,0.68058 0.33675,-0.005 0.58498,-0.68343 0.92087,-0.70797 0.3359,-0.0246 0.67948,0.61041 1.01338,0.56637 0.33389,-0.044 0.50174,-0.74639 0.83251,-0.80977 0.33077,-0.0634 0.74627,0.52744 1.0728,0.44494 0.32653,-0.0825 0.41108,-0.79989 0.73225,-0.90124 0.32118,-0.10134 0.80251,0.43766 1.11725,0.31781 0.31474,-0.11985 0.31597,-0.84235 0.62322,-0.9803 0.30724,-0.13795 0.84748,0.3411 1.14618,0.18552 0.2987,-0.15558 0.21573,-0.87274 0.50488,-1.04542 0.28915,-0.17268 0.88152,0.24037 1.16013,0.0512 0.27862,-0.1892 0.1132,-0.89252 0.38034,-1.0976 0.26715,-0.20508 0.9033,0.13655 1.15807,-0.0837 0.25477,-0.22027 0.009,-0.89907 0.25063,-1.13378 0.24153,-0.23471 0.91302,0.0308 1.1405,-0.21756 0.22748,-0.24836 -0.0959,-0.89432 0.11679,-1.15548 0.21265,-0.26117 0.91084,-0.0757 1.10794,-0.34882 0.19711,-0.27308 -0.19898,-0.87709 -0.0181,-1.16117 0.18089,-0.28408 0.89581,-0.18078 1.05988,-0.47491 0.16407,-0.29412 -0.29965,-0.84818 -0.15296,-1.15135 0.14669,-0.30316 0.86905,-0.2831 0.99787,-0.59428 0.12881,-0.31118 -0.39576,-0.80788 -0.28526,-1.12603 0.11051,-0.31814 0.82958,-0.38238 0.9214,-0.70641 0.0918,-0.32403 -0.48675,-0.75587 -0.41393,-1.08469 0.0728,-0.32882 0.77996,-0.47624 0.83354,-0.80874 0.0536,-0.33249 -0.57159,-0.69486 -0.53744,-1.02991 0.0342,-0.33505 0.71919,-0.56321 0.73381,-0.89968 0.0146,-0.33647 -0.64822,-0.6234 -0.65319,-0.96015 -0.005,-0.33675 0.64931,-0.64338 0.62477,-0.97927 -0.0246,-0.33589 -0.71613,-0.54409 -0.76016,-0.87798 -0.044,-0.3339 0.5698,-0.71413 0.50642,-1.0449 -0.0634,-0.33077 -0.77429,-0.45741 -0.85679,-0.78393 -0.0825,-0.32653 0.48323,-0.7754 0.38189,-1.09657 -0.10135,-0.32118 -0.82222,-0.36429 -0.94206,-0.67903 -0.11985,-0.31474 0.38961,-0.82654 0.25166,-1.13379 -0.13794,-0.30724 -0.85883,-0.26612 -1.01441,-0.56482 -0.15557,-0.2987 0.29102,-0.86582 0.11834,-1.15497 -0.17268,-0.28914 -0.88412,-0.16476 -1.07332,-0.44338 -0.1892,-0.27862 0.18906,-0.89402 -0.016,-1.16117 -0.20509,-0.26715 -0.8975,-0.061 -1.11777,-0.31574 -0.22026,-0.25477 0.0838,-0.91034 -0.15089,-1.15187 -0.23471,-0.24153 -0.89835,0.044 -1.1467,-0.18345 -0.24836,-0.22748 -0.0225,-0.9139 -0.2837,-1.12655 -0.26117,-0.21265 -0.88706,0.14801 -1.16014,-0.0491 -0.27309,-0.19711 -0.12829,-0.90483 -0.41238,-1.08572 -0.28408,-0.1809 -0.86395,0.24933 -1.15807,0.0853 -0.29412,-0.16407 -0.23272,-0.88374 -0.53588,-1.03042 -0.30316,-0.14669 -0.82932,0.34843 -1.1405,0.21962 -0.31118,-0.12881 -0.3335,-0.85068 -0.65164,-0.96118 -0.31814,-0.1105 -0.78288,0.44218 -1.10691,0.35037 -0.32403,-0.0918 -0.43031,-0.80672 -0.75913,-0.87954 -0.32882,-0.0728 -0.72635,0.53056 -1.05885,0.47698 -0.33249,-0.0536 -0.52071,-0.75133 -0.85576,-0.78549 -0.33505,-0.0342 -0.66036,0.61097 -0.99684,0.59635 -0.33647,-0.0146 -0.60427,-0.68555 -0.94102,-0.68058 z m 0.24547,13.6772 a 3,3 0 0 1 1.50016,0.40515 v 5.18883 a 3,3 0 0 1 -1.50016,0.40617 3,3 0 0 1 -2.99982,-2.99981 3,3 0 0 1 2.99982,-3.00034 z"
       id="path1019"
       inkscape:connector-curvature="0" />
    <path
       style="fill:#ff5555;fill-opacity:0.63076926;stroke:none;stroke-width:0.5;stroke-miterlimit:4;stroke-dasharray:none;stroke-dashoffset:0;stroke-opacity:1"
       d="m 210.4732,131.83596 a 10,10 0 0 0 -9.99991,9.9999 10,10 0 0 0 9.99991,9.99991 10,10 0 0 0 10.00042,-9.99991 10,10 0 0 0 -10.00042,-9.9999 z m 0,6.49986 a 3.4999998,3.4999998 0 0 1 3.50004,3.50004 3.4999998,3.4999998 0 0 1 -3.50004,3.50005 3.4999998,3.4999998 0 0 1 -3.50005,-3.50005 3.4999998,3.4999998 0 0 1 3.50005,-3.50004 z"
       id="circle996"
       inkscape:connector-curvature="0" />
    <path
       style="fill:#009d00;fill-opacity:0.63076926;stroke:none;stroke-width:2.99317288;stroke-miterlimit:4;stroke-dasharray:none;stroke-dashoffset:0;stroke-opacity:1"
       d="m 248.49805,0 v 642.51953 h 113.38476 v -11.33789 h 151.18164 v 11.33789 H 626.45117 V 0 Z m 11.33593,94.486328 h 11.33985 V 245.66797 h -11.33985 z m 0,302.365232 h 11.33985 V 548.0332 h -11.33985 z"
       transform="matrix(0.26458333,0,0,0.26458333,26.458332,32.505943)"
       id="rect836"
       inkscape:connector-curvature="0" />
    <path
       style="fill:#009d00;fill-opacity:0.63076926;stroke:none;stroke-width:2.23976803;stroke-miterlimit:4;stroke-dasharray:none;stroke-dashoffset:0;stroke-opacity:1"
       d="m 0,0 v 631.18164 h 51.023438 v 11.33789 H 164.41016 v -11.33789 h 51.02343 V 548.0332 h 11.33789 V 396.85156 H 215.43359 V 245.66797 h 11.33789 V 94.486328 H 215.43359 V 0 Z M 113.38672,52.914062 A 22.677165,22.677165 0 0 1 136.0625,75.589844 22.677165,22.677165 0 0 1 113.38672,98.267578 22.677165,22.677165 0 0 1 90.708984,75.589844 22.677165,22.677165 0 0 1 113.38672,52.914062 Z M 55.748047,159.37109 H 171.02344 v 54.80274 H 55.748047 Z m 57.638673,242.51953 a 13.228346,13.228346 0 0 1 13.22656,13.22657 13.228346,13.228346 0 0 1 -13.22656,13.22851 13.228346,13.228346 0 0 1 -13.22852,-13.22851 13.228346,13.228346 0 0 1 13.22852,-13.22657 z"
       transform="matrix(0.26458333,0,0,0.26458333,26.458332,32.505943)"
       id="rect815"
       inkscape:connector-curvature="0" />
    <path
       style="fill:#009d00;fill-opacity:0.63076926;stroke:none;stroke-width:0.45164078;stroke-miterlimit:4;stroke-dasharray:none;stroke-dashoffset:0;stroke-opacity:1"
       d="m 195.20733,32.505943 v 96.999747 h 57.00014 V 99.505985 h 2.99981 V 59.505844 h -2.99981 V 32.505943 h -13.49995 v 2.999817 h -30.00024 v -2.999817 z"
       id="rect815-7"
       inkscape:connector-curvature="0" />
    <path
       style="fill:#009d00;fill-opacity:0.63076926;stroke:none;stroke-width:2.25979614;stroke-miterlimit:4;stroke-dasharray:none;stroke-dashoffset:0;stroke-opacity:1"
       d="M 885.71484,0 V 642.51953 H 1101.1465 V 0 Z m 113.38477,71.810547 a 3.7795276,3.7795276 0 0 1 3.77929,3.779297 3.7795276,3.7795276 0 0 1 -3.77929,3.779297 3.7795276,3.7795276 0 0 1 -3.7793,-3.779297 3.7795276,3.7795276 0 0 1 3.7793,-3.779297 z m 0,326.298833 a 17.007874,17.007874 0 0 1 17.00779,17.00781 17.007874,17.007874 0 0 1 -17.00779,17.00976 17.007874,17.007874 0 0 1 -17.00781,-17.00976 17.007874,17.007874 0 0 1 17.00781,-17.00781 z"
       transform="matrix(0.26458333,0,0,0.26458333,26.458332,32.505943)"
       id="rect920"
       inkscape:connector-curvature="0" />
    <g
       transform="translate(304.345)"
       id="g966">
      <rect
         y="32.505943"
         x="26.458332"
         height="167"
         width="57"
         id="rect952"
         style="fill:#009d00;fill-opacity:0.63076926;stroke:none;stroke-width:0.59260529;stroke-miterlimit:4;stroke-dasharray:none;stroke-dashoffset:0;stroke-opacity:1" />
      <rect
         y="74.672943"
         x="41.208332"
         height="14.5"
         width="30.5"
         id="rect954"
         style="fill:#ff5555;fill-opacity:0.63076926;stroke:none;stroke-width:0.5;stroke-miterlimit:4;stroke-dasharray:none;stroke-dashoffset:0;stroke-opacity:1" />
      <circle
         r="6"
         cy="52.505943"
         cx="56.458332"
         id="circle956"
         style="fill:#ff5555;fill-opacity:0.63076926;stroke:none;stroke-width:0.5;stroke-miterlimit:4;stroke-dasharray:none;stroke-dashoffset:0;stroke-opacity:1" />
      <circle
         r="3.5"
         cy="142.33928"
         cx="56.458332"
         id="circle958"
         style="fill:#ff5555;fill-opacity:0.63076926;stroke:none;stroke-width:0.5;stroke-miterlimit:4;stroke-dasharray:none;stroke-dashoffset:0;stroke-opacity:1" />
      <rect
         style="fill:#ff5555;fill-opacity:0.63076926;stroke:none;stroke-width:0.5;stroke-miterlimit:4;stroke-dasharray:none;stroke-dashoffset:0;stroke-opacity:1"
         id="rect960"
         width="3"
         height="40"
         x="83.458328"
         y="57.505707" />
      <rect
         y="137.50618"
         x="83.458328"
         height="40"
         width="3"
         id="rect962"
         style="fill:#ff5555;fill-opacity:0.63076926;stroke:none;stroke-width:0.5;stroke-miterlimit:4;stroke-dasharray:none;stroke-dashoffset:0;stroke-opacity:1" />
      <rect
         transform="rotate(-90)"
         y="39.958332"
         x="-202.50595"
         height="30"
         width="3"
         id="rect964"
         style="fill:#ff5555;fill-opacity:0.63076926;stroke:none;stroke-width:0.43301269;stroke-miterlimit:4;stroke-dasharray:none;stroke-dashoffset:0;stroke-opacity:1" />
    </g>
    <path
       sodipodi:type="star"
       style="fill:#ff5555;fill-opacity:0.63076926;stroke:none;stroke-width:0.5;stroke-miterlimit:4;stroke-dasharray:none;stroke-dashoffset:0;stroke-opacity:1"
       id="path1019-5"
       sodipodi:sides="54"
       sodipodi:cx="235.73038"
       sodipodi:cy="224.42204"
       sodipodi:r1="16.01152"
       sodipodi:r2="16.678667"
       sodipodi:arg1="0.91607774"
       sodipodi:arg2="0.97425538"
       inkscape:flatsided="false"
       inkscape:rounded="0.29"
       inkscape:randomized="0"
       d="m 245.48037,237.12269 c -0.26715,0.20508 -0.10156,0.90814 -0.38018,1.09734 -0.27862,0.18921 -0.87105,-0.22399 -1.1602,-0.0513 -0.28915,0.17268 -0.20631,0.89021 -0.50501,1.04579 -0.29869,0.15557 -0.83915,-0.32361 -1.14639,-0.18566 -0.30724,0.13794 -0.30826,0.86024 -0.623,0.98008 -0.31474,0.11985 -0.79592,-0.41883 -1.11709,-0.31749 -0.32118,0.10135 -0.40604,0.81864 -0.73257,0.90114 -0.32653,0.0825 -0.74191,-0.50841 -1.07268,-0.44504 -0.33077,0.0634 -0.49833,0.76597 -0.83223,0.81 -0.3339,0.044 -0.67787,-0.5911 -1.01376,-0.56655 -0.33589,0.0245 -0.58389,0.70293 -0.92064,0.7079 -0.33675,0.005 -0.60466,-0.6658 -0.94113,-0.68041 -0.33647,-0.0146 -0.66155,0.63039 -0.9966,0.59624 -0.33505,-0.0342 -0.52328,-0.7315 -0.85578,-0.78508 -0.3325,-0.0536 -0.73025,0.54933 -1.05907,0.47651 -0.32882,-0.0728 -0.43483,-0.78729 -0.75886,-0.87911 -0.32402,-0.0918 -0.78909,0.46084 -1.10723,0.35034 -0.31814,-0.11051 -0.34048,-0.83246 -0.65166,-0.96127 -0.31118,-0.12882 -0.83725,0.36611 -1.14042,0.21942 -0.30316,-0.14669 -0.24154,-0.86635 -0.53566,-1.03042 -0.29412,-0.16407 -0.87409,0.26644 -1.15818,0.0855 -0.28408,-0.18089 -0.13933,-0.88854 -0.41241,-1.08564 -0.27309,-0.19711 -0.89912,0.16316 -1.16028,-0.0495 -0.26116,-0.21265 -0.0352,-0.8987 -0.28359,-1.12618 -0.24836,-0.22747 -0.91198,0.0577 -1.14669,-0.18385 -0.23471,-0.24153 0.0693,-0.89671 -0.15093,-1.15148 -0.22027,-0.25477 -0.91251,-0.0486 -1.11759,-0.31574 -0.20509,-0.26714 0.17297,-0.8826 -0.0162,-1.16122 -0.18921,-0.27862 -0.9007,-0.15419 -1.07339,-0.44334 -0.17268,-0.28915 0.27427,-0.85655 0.11869,-1.15525 -0.15557,-0.2987 -0.87671,-0.25772 -1.01465,-0.56496 -0.13795,-0.30724 0.37185,-0.81892 0.252,-1.13366 -0.11985,-0.31475 -0.84086,-0.35776 -0.94221,-0.67893 -0.10134,-0.32118 0.46441,-0.77022 0.38191,-1.09675 -0.0825,-0.32652 -0.79364,-0.45295 -0.85701,-0.78372 -0.0634,-0.33077 0.55068,-0.71109 0.50665,-1.04499 -0.044,-0.3339 -0.7357,-0.54203 -0.76024,-0.87792 -0.0245,-0.33589 0.62951,-0.64235 0.62454,-0.9791 -0.005,-0.33675 -0.66779,-0.62377 -0.65318,-0.96024 0.0146,-0.33647 0.69984,-0.56493 0.73399,-0.89998 0.0342,-0.33505 -0.59086,-0.69708 -0.53728,-1.02958 0.0536,-0.3325 0.76068,-0.47986 0.8335,-0.80868 0.0728,-0.32882 -0.50594,-0.76096 -0.41412,-1.08499 0.0918,-0.32403 0.81125,-0.38831 0.92175,-0.70646 0.1105,-0.31814 -0.41418,-0.81455 -0.28537,-1.12572 0.12882,-0.31118 0.85085,-0.29151 0.99754,-0.59467 0.14669,-0.30316 -0.31682,-0.85713 -0.15275,-1.15125 0.16407,-0.29412 0.87893,-0.19075 1.05982,-0.47484 0.1809,-0.28408 -0.21516,-0.88811 -0.0181,-1.16119 0.19711,-0.27309 0.89514,-0.0874 1.10779,-0.34859 0.21265,-0.26117 -0.11061,-0.90709 0.11686,-1.15544 0.22748,-0.24836 0.89923,0.0171 1.14077,-0.21763 0.24153,-0.23471 -0.005,-0.91379 0.25021,-1.13406 0.25477,-0.22027 0.89117,0.12136 1.15832,-0.0837 0.26714,-0.20509 0.10156,-0.90815 0.38018,-1.09735 0.27861,-0.1892 0.87105,0.224 1.1602,0.0513 0.28914,-0.17268 0.2063,-0.89021 0.505,-1.04579 0.2987,-0.15558 0.83916,0.32361 1.1464,0.18566 0.30724,-0.13795 0.30825,-0.86024 0.623,-0.98009 0.31474,-0.11985 0.79591,0.41884 1.11709,0.31749 0.32118,-0.10134 0.40604,-0.81863 0.73256,-0.90113 0.32653,-0.0825 0.74192,0.5084 1.07269,0.44503 0.33077,-0.0634 0.49833,-0.76596 0.83222,-0.81 0.3339,-0.044 0.67788,0.5911 1.01377,0.56656 0.33589,-0.0246 0.58388,-0.70293 0.92063,-0.70791 0.33675,-0.005 0.60467,0.6658 0.94114,0.68042 0.33647,0.0146 0.66154,-0.6304 0.99659,-0.59624 0.33505,0.0342 0.52328,0.73149 0.85578,0.78507 0.3325,0.0536 0.73026,-0.54933 1.05908,-0.47651 0.32882,0.0728 0.43482,0.7873 0.75885,0.87912 0.32403,0.0918 0.78909,-0.46084 1.10723,-0.35034 0.31814,0.1105 0.34049,0.83245 0.65166,0.96127 0.31118,0.12881 0.83726,-0.36612 1.14042,-0.21943 0.30316,0.14669 0.24154,0.86635 0.53566,1.03042 0.29412,0.16407 0.8741,-0.26644 1.15818,-0.0855 0.28409,0.18089 0.13933,0.88853 0.41241,1.08564 0.27309,0.1971 0.89912,-0.16317 1.16029,0.0495 0.26116,0.21265 0.0352,0.89871 0.28358,1.12618 0.24836,0.22748 0.91199,-0.0577 1.1467,0.18385 0.2347,0.24153 -0.0693,0.89672 0.15093,1.15149 0.22026,0.25477 0.91251,0.0486 1.11759,0.31573 0.20508,0.26715 -0.17297,0.8826 0.0162,1.16122 0.1892,0.27862 0.9007,0.1542 1.07338,0.44334 0.17268,0.28915 -0.27427,0.85656 -0.11869,1.15526 0.15558,0.2987 0.87671,0.25771 1.01466,0.56496 0.13794,0.30724 -0.37185,0.81892 -0.25201,1.13366 0.11985,0.31474 0.84087,0.35775 0.94221,0.67893 0.10134,0.32118 -0.46441,0.77022 -0.38191,1.09674 0.0825,0.32653 0.79364,0.45295 0.85702,0.78373 0.0634,0.33077 -0.55069,0.71109 -0.50665,1.04499 0.044,0.33389 0.73569,0.54202 0.76023,0.87791 0.0246,0.33589 -0.62951,0.64236 -0.62454,0.97911 0.005,0.33675 0.6678,0.62377 0.65318,0.96024 -0.0146,0.33647 -0.69983,0.56493 -0.73399,0.89998 -0.0341,0.33505 0.59087,0.69708 0.53729,1.02957 -0.0536,0.3325 -0.76069,0.47987 -0.83351,0.80869 -0.0728,0.32882 0.50595,0.76096 0.41413,1.08499 -0.0918,0.32403 -0.81125,0.38831 -0.92175,0.70645 -0.11051,0.31814 0.41418,0.81455 0.28536,1.12573 -0.12881,0.31118 -0.85084,0.2915 -0.99753,0.59467 -0.14669,0.30316 0.31681,0.85712 0.15274,1.15124 -0.16407,0.29412 -0.87893,0.19076 -1.05982,0.47484 -0.18089,0.28409 0.21517,0.88811 0.0181,1.1612 -0.1971,0.27308 -0.89513,0.0874 -1.10778,0.34859 -0.21265,0.26116 0.11061,0.90708 -0.11687,1.15544 -0.22748,0.24836 -0.89923,-0.0171 -1.14076,0.21763 -0.24153,0.23471 0.005,0.91379 -0.25022,1.13406 -0.25477,0.22027 -0.89116,-0.12136 -1.15831,0.0837 z"
       inkscape:transform-center-x="-0.0014941342"
       inkscape:transform-center-y="-0.0047766941" />
    <circle
       cy="224.42204"
       cx="235.73036"
       id="circle958-3-6"
       style="fill:#ff5555;fill-opacity:0.63076926;stroke:none;stroke-width:0.5;stroke-miterlimit:4;stroke-dasharray:none;stroke-dashoffset:0;stroke-opacity:1"
       r="3" />
    <path
       style="fill:#ff5555;fill-opacity:0.63076926;stroke:none;stroke-width:0.5;stroke-miterlimit:4;stroke-dasharray:none;stroke-dashoffset:0;stroke-opacity:1"
       d="m 267.6171,218.482 a 3.0000001,3.0000001 0 0 0 -2.99982,3.00033 3.0000001,3.0000001 0 0 0 2.99982,2.99982 3.0000001,3.0000001 0 0 0 1.50017,-0.40618 v -5.18883 A 3.0000001,3.0000001 0 0 0 267.6171,218.482 Z"
       id="circle1014-2"
       inkscape:connector-curvature="0" />
    <path
       style="fill:#ff5555;fill-opacity:0.63076926;stroke:none;stroke-width:0.5;stroke-miterlimit:4;stroke-dasharray:none;stroke-dashoffset:0;stroke-opacity:1"
       d="m 210.49444,152.42025 c -0.33675,0.005 -0.58446,0.68342 -0.92035,0.70797 -0.3359,0.0246 -0.68,-0.61041 -1.0139,-0.56638 -0.33389,0.044 -0.50173,0.7464 -0.8325,0.80977 -0.33077,0.0634 -0.74576,-0.52743 -1.07229,-0.44493 -0.32652,0.0825 -0.41159,0.79989 -0.73277,0.90124 -0.32118,0.10134 -0.8025,-0.43714 -1.11725,-0.3173 -0.31474,0.11985 -0.31546,0.84184 -0.6227,0.97979 -0.30723,0.13794 -0.848,-0.34109 -1.1467,-0.18552 -0.2987,0.15558 -0.21572,0.87325 -0.50487,1.04593 -0.28915,0.17268 -0.88152,-0.24088 -1.16014,-0.0517 -0.27862,0.18921 -0.11319,0.89253 -0.38034,1.09761 -0.26714,0.20509 -0.9033,-0.13655 -1.15807,0.0837 -0.25477,0.22027 -0.009,0.89907 -0.25011,1.13378 -0.24153,0.23471 -0.91354,-0.0303 -1.14102,0.21807 -0.22747,0.24836 0.0959,0.89381 -0.11679,1.15497 -0.21265,0.26116 -0.91083,0.0757 -1.10794,0.34882 -0.1971,0.27308 0.19898,0.87708 0.0181,1.16117 -0.1809,0.28408 -0.89582,0.18078 -1.05989,0.4749 -0.16406,0.29413 0.29966,0.84819 0.15297,1.15135 -0.14669,0.30317 -0.86854,0.28362 -0.99736,0.5948 -0.12881,0.31118 0.39576,0.80737 0.28526,1.12551 -0.11051,0.31815 -0.83009,0.38239 -0.92191,0.70642 -0.0918,0.32403 0.48675,0.75639 0.41393,1.0852 -0.0728,0.32883 -0.77997,0.47573 -0.83354,0.80822 -0.0536,0.3325 0.57159,0.69486 0.53743,1.02992 -0.0342,0.33505 -0.71919,0.56321 -0.73381,0.89968 -0.0146,0.33647 0.64822,0.62392 0.65319,0.96067 0.005,0.33675 -0.64931,0.64286 -0.62476,0.97875 0.0245,0.33589 0.71613,0.54408 0.76016,0.87798 0.044,0.3339 -0.5698,0.71413 -0.50643,1.0449 0.0634,0.33077 0.7743,0.4574 0.85679,0.78393 0.0825,0.32653 -0.48323,0.7754 -0.38188,1.09658 0.10134,0.32117 0.82272,0.36428 0.94257,0.67902 0.11985,0.31475 -0.39012,0.82654 -0.25218,1.13378 0.13795,0.30724 0.85883,0.26613 1.01441,0.56483 0.15558,0.2987 -0.29102,0.86633 -0.11834,1.15548 0.17268,0.28915 0.88412,0.16477 1.07332,0.44339 0.1892,0.27861 -0.18906,0.89402 0.016,1.16116 0.20508,0.26715 0.89749,0.061 1.11776,0.31575 0.22027,0.25477 -0.0838,0.90982 0.1509,1.15135 0.2347,0.24153 0.89834,-0.0435 1.1467,0.18397 0.24835,0.22747 0.0225,0.91338 0.2837,1.12603 0.26116,0.21265 0.88705,-0.1475 1.16014,0.0496 0.27308,0.1971 0.12829,0.90482 0.41237,1.08572 0.28409,0.18089 0.86395,-0.24985 1.15807,-0.0858 0.29412,0.16407 0.23272,0.88374 0.53589,1.03043 0.30316,0.14669 0.82932,-0.34844 1.1405,-0.21962 0.31117,0.12881 0.33349,0.85119 0.65163,0.9617 0.31815,0.1105 0.78289,-0.44219 1.10692,-0.35037 0.32403,0.0918 0.4303,0.8062 0.75912,0.87902 0.32882,0.0728 0.72636,-0.53004 1.05885,-0.47646 0.3325,0.0536 0.52071,0.75081 0.85576,0.78497 0.33505,0.0342 0.66037,-0.61097 0.99684,-0.59635 0.33647,0.0146 0.60428,0.68555 0.94103,0.68058 0.33675,-0.005 0.58498,-0.68343 0.92087,-0.70797 0.3359,-0.0246 0.67948,0.61041 1.01338,0.56637 0.33389,-0.044 0.50174,-0.74639 0.83251,-0.80977 0.33077,-0.0634 0.74627,0.52744 1.0728,0.44494 0.32653,-0.0825 0.41108,-0.79989 0.73225,-0.90124 0.32118,-0.10134 0.80251,0.43766 1.11725,0.31781 0.31474,-0.11985 0.31597,-0.84235 0.62322,-0.9803 0.30724,-0.13795 0.84748,0.3411 1.14618,0.18552 0.2987,-0.15558 0.21573,-0.87274 0.50488,-1.04542 0.28915,-0.17268 0.88152,0.24037 1.16013,0.0512 0.27862,-0.1892 0.1132,-0.89252 0.38034,-1.0976 0.26716,-0.20508 0.9033,0.13655 1.15807,-0.0837 0.25477,-0.22027 0.009,-0.89907 0.25064,-1.13378 0.24153,-0.23471 0.91301,0.0308 1.1405,-0.21756 0.22747,-0.24836 -0.0959,-0.89432 0.11678,-1.15548 0.21266,-0.26117 0.91084,-0.0757 1.10794,-0.34882 0.19711,-0.27308 -0.19898,-0.87709 -0.0181,-1.16117 0.18089,-0.28408 0.89581,-0.18078 1.05989,-0.47491 0.16406,-0.29412 -0.29966,-0.84818 -0.15297,-1.15135 0.14669,-0.30316 0.86905,-0.2831 0.99788,-0.59428 0.12881,-0.31118 -0.39577,-0.80788 -0.28527,-1.12603 0.11051,-0.31814 0.82958,-0.38238 0.9214,-0.70641 0.0918,-0.32403 -0.48675,-0.75587 -0.41393,-1.08469 0.0728,-0.32882 0.77996,-0.47624 0.83354,-0.80874 0.0536,-0.33249 -0.57159,-0.69486 -0.53744,-1.02991 0.0342,-0.33505 0.71919,-0.56321 0.73381,-0.89968 0.0146,-0.33647 -0.64822,-0.6234 -0.65319,-0.96015 -0.005,-0.33675 0.64931,-0.64338 0.62477,-0.97927 -0.0246,-0.33589 -0.71613,-0.54409 -0.76016,-0.87798 -0.044,-0.3339 0.5698,-0.71413 0.50643,-1.0449 -0.0634,-0.33077 -0.77429,-0.45741 -0.8568,-0.78393 -0.0825,-0.32653 0.48324,-0.7754 0.38189,-1.09657 -0.10135,-0.32118 -0.82221,-0.36429 -0.94205,-0.67903 -0.11986,-0.31474 0.3896,-0.82654 0.25165,-1.13379 -0.13794,-0.30724 -0.85883,-0.26612 -1.01441,-0.56482 -0.15557,-0.2987 0.29102,-0.86582 0.11834,-1.15497 -0.17268,-0.28914 -0.88411,-0.16476 -1.07332,-0.44338 -0.1892,-0.27862 0.18907,-0.89402 -0.016,-1.16117 -0.20509,-0.26715 -0.8975,-0.061 -1.11777,-0.31574 -0.22026,-0.25477 0.0838,-0.91034 -0.15089,-1.15187 -0.23471,-0.24153 -0.89835,0.044 -1.1467,-0.18345 -0.24836,-0.22748 -0.0225,-0.9139 -0.2837,-1.12655 -0.26117,-0.21265 -0.88706,0.14801 -1.16014,-0.0491 -0.27308,-0.19711 -0.12828,-0.90483 -0.41237,-1.08572 -0.28408,-0.1809 -0.86395,0.24933 -1.15807,0.0853 -0.29412,-0.16407 -0.23272,-0.88374 -0.53588,-1.03042 -0.30316,-0.14669 -0.82932,0.34843 -1.1405,0.21962 -0.31118,-0.12881 -0.3335,-0.85068 -0.65164,-0.96118 -0.31814,-0.1105 -0.78288,0.44218 -1.10691,0.35037 -0.32403,-0.0918 -0.43031,-0.80672 -0.75913,-0.87954 -0.32882,-0.0728 -0.72635,0.53056 -1.05885,0.47698 -0.33249,-0.0536 -0.52071,-0.75133 -0.85576,-0.78549 -0.33505,-0.0342 -0.66036,0.61097 -0.99684,0.59635 -0.33647,-0.0146 -0.60427,-0.68555 -0.94102,-0.68058 z m 0.24547,13.6772 a 3.0000001,3.0000001 0 0 1 1.50016,0.40515 v 5.18883 a 3.0000001,3.0000001 0 0 1 -1.50016,0.40617 3.0000001,3.0000001 0 0 1 -2.99982,-2.99981 3.0000001,3.0000001 0 0 1 2.99982,-3.00034 z"
       id="path1019-9"
       inkscape:connector-curvature="0" />
    <path
       sodipodi:type="star"
       style="fill:#ff5555;fill-opacity:0.63076926;stroke:none;stroke-width:0.5;stroke-miterlimit:4;stroke-dasharray:none;stroke-dashoffset:0;stroke-opacity:1"
       id="path1019-5-1"
       sodipodi:sides="54"
       sodipodi:cx="240.54122"
       sodipodi:cy="183.93071"
       sodipodi:r1="16.01152"
       sodipodi:r2="16.678667"
       sodipodi:arg1="0.91607774"
       sodipodi:arg2="0.97425538"
       inkscape:flatsided="false"
       inkscape:rounded="0.29"
       inkscape:randomized="0"
       d="m 250.29121,196.63136 c -0.26715,0.20508 -0.10157,0.90814 -0.38018,1.09734 -0.27862,0.1892 -0.87106,-0.224 -1.16021,-0.0513 -0.28914,0.17269 -0.2063,0.89022 -0.505,1.04579 -0.2987,0.15558 -0.83916,-0.3236 -1.1464,-0.18566 -0.30724,0.13795 -0.30825,0.86024 -0.62299,0.98009 -0.31475,0.11985 -0.79592,-0.41884 -1.1171,-0.31749 -0.32118,0.10134 -0.40604,0.81864 -0.73256,0.90113 -0.32653,0.0825 -0.74191,-0.5084 -1.07269,-0.44503 -0.33077,0.0634 -0.49833,0.76597 -0.83222,0.81 -0.3339,0.044 -0.67787,-0.5911 -1.01377,-0.56656 -0.33589,0.0246 -0.58388,0.70294 -0.92063,0.70791 -0.33675,0.005 -0.60467,-0.6658 -0.94114,-0.68042 -0.33647,-0.0146 -0.66154,0.6304 -0.99659,0.59624 -0.33505,-0.0342 -0.52328,-0.73149 -0.85578,-0.78507 -0.3325,-0.0536 -0.73026,0.54933 -1.05908,0.47651 -0.32882,-0.0728 -0.43482,-0.7873 -0.75885,-0.87911 -0.32403,-0.0918 -0.78909,0.46084 -1.10723,0.35033 -0.31814,-0.1105 -0.34048,-0.83245 -0.65166,-0.96127 -0.31118,-0.12881 -0.83726,0.36612 -1.14042,0.21943 -0.30316,-0.14669 -0.24154,-0.86635 -0.53566,-1.03042 -0.29412,-0.16407 -0.8741,0.26644 -1.15818,0.0855 -0.28408,-0.1809 -0.13933,-0.88854 -0.41241,-1.08564 -0.27309,-0.19711 -0.89912,0.16316 -1.16028,-0.0495 -0.26117,-0.21265 -0.0352,-0.8987 -0.28359,-1.12618 -0.24836,-0.22747 -0.91198,0.0577 -1.14669,-0.18385 -0.23471,-0.24153 0.0693,-0.89672 -0.15093,-1.15149 -0.22027,-0.25477 -0.91252,-0.0486 -1.1176,-0.31573 -0.20508,-0.26714 0.17297,-0.8826 -0.0162,-1.16122 -0.1892,-0.27862 -0.9007,-0.15419 -1.07338,-0.44334 -0.17268,-0.28915 0.27427,-0.85656 0.11869,-1.15526 -0.15558,-0.2987 -0.87671,-0.25771 -1.01466,-0.56495 -0.13794,-0.30724 0.37186,-0.81893 0.25201,-1.13367 -0.11985,-0.31474 -0.84086,-0.35775 -0.94221,-0.67893 -0.10134,-0.32117 0.46441,-0.77021 0.38191,-1.09674 -0.0825,-0.32653 -0.79364,-0.45295 -0.85702,-0.78372 -0.0634,-0.33077 0.55069,-0.7111 0.50665,-1.04499 -0.044,-0.3339 -0.73569,-0.54203 -0.76023,-0.87792 -0.0246,-0.33589 0.62951,-0.64236 0.62454,-0.97911 -0.005,-0.33675 -0.66779,-0.62377 -0.65318,-0.96024 0.0146,-0.33647 0.69983,-0.56493 0.73399,-0.89998 0.0342,-0.33505 -0.59087,-0.69707 -0.53729,-1.02957 0.0536,-0.3325 0.76069,-0.47987 0.83351,-0.80869 0.0728,-0.32882 -0.50594,-0.76096 -0.41413,-1.08499 0.0918,-0.32403 0.81125,-0.38831 0.92175,-0.70645 0.11051,-0.31814 -0.41417,-0.81455 -0.28536,-1.12573 0.12881,-0.31118 0.85084,-0.2915 0.99753,-0.59466 0.14669,-0.30317 -0.31681,-0.85713 -0.15274,-1.15125 0.16407,-0.29412 0.87893,-0.19076 1.05982,-0.47484 0.18089,-0.28408 -0.21517,-0.88811 -0.0181,-1.1612 0.19711,-0.27308 0.89513,-0.0874 1.10778,-0.34859 0.21265,-0.26116 -0.1106,-0.90708 0.11687,-1.15544 0.22748,-0.24835 0.89923,0.0171 1.14076,-0.21763 0.24153,-0.2347 -0.005,-0.91379 0.25022,-1.13406 0.25477,-0.22026 0.89117,0.12136 1.15831,-0.0837 0.26715,-0.20508 0.10156,-0.90814 0.38018,-1.09734 0.27862,-0.1892 0.87105,0.224 1.1602,0.0513 0.28915,-0.17268 0.20631,-0.89021 0.50501,-1.04578 0.2987,-0.15558 0.83915,0.3236 1.1464,0.18566 0.30724,-0.13795 0.30825,-0.86024 0.62299,-0.98009 0.31474,-0.11985 0.79592,0.41884 1.1171,0.31749 0.32117,-0.10134 0.40603,-0.81864 0.73256,-0.90114 0.32653,-0.0825 0.74191,0.50841 1.07268,0.44504 0.33077,-0.0634 0.49833,-0.76597 0.83223,-0.81 0.3339,-0.044 0.67787,0.5911 1.01376,0.56656 0.3359,-0.0246 0.58389,-0.70294 0.92064,-0.70791 0.33675,-0.005 0.60467,0.6658 0.94114,0.68042 0.33647,0.0146 0.66154,-0.6304 0.99659,-0.59624 0.33505,0.0341 0.52328,0.73149 0.85578,0.78507 0.3325,0.0536 0.73025,-0.54933 1.05907,-0.47651 0.32882,0.0728 0.43483,0.7873 0.75886,0.87911 0.32403,0.0918 0.78909,-0.46084 1.10723,-0.35033 0.31814,0.1105 0.34048,0.83245 0.65166,0.96127 0.31118,0.12881 0.83726,-0.36612 1.14042,-0.21943 0.30316,0.14669 0.24154,0.86635 0.53566,1.03042 0.29412,0.16407 0.8741,-0.26644 1.15818,-0.0856 0.28408,0.1809 0.13933,0.88854 0.41241,1.08564 0.27309,0.19711 0.89912,-0.16316 1.16028,0.0495 0.26116,0.21265 0.0352,0.8987 0.28359,1.12618 0.24836,0.22747 0.91198,-0.0577 1.14669,0.18385 0.23471,0.24153 -0.0693,0.89672 0.15093,1.15149 0.22027,0.25477 0.91251,0.0486 1.11759,0.31573 0.20509,0.26714 -0.17297,0.8826 0.0162,1.16122 0.1892,0.27862 0.9007,0.15419 1.07338,0.44334 0.17268,0.28915 -0.27427,0.85656 -0.11869,1.15526 0.15558,0.2987 0.87671,0.25771 1.01465,0.56495 0.13795,0.30724 -0.37185,0.81893 -0.252,1.13367 0.11985,0.31474 0.84086,0.35775 0.94221,0.67893 0.10134,0.32117 -0.46441,0.77021 -0.38191,1.09674 0.0825,0.32653 0.79364,0.45295 0.85701,0.78372 0.0634,0.33077 -0.55068,0.7111 -0.50665,1.04499 0.044,0.3339 0.7357,0.54203 0.76024,0.87792 0.0246,0.33589 -0.62951,0.64236 -0.62454,0.97911 0.005,0.33675 0.66779,0.62377 0.65318,0.96024 -0.0146,0.33647 -0.69983,0.56492 -0.73399,0.89998 -0.0342,0.33505 0.59086,0.69707 0.53728,1.02957 -0.0536,0.3325 -0.76068,0.47987 -0.8335,0.80869 -0.0728,0.32882 0.50594,0.76096 0.41412,1.08499 -0.0918,0.32402 -0.81124,0.38831 -0.92175,0.70645 -0.1105,0.31814 0.41418,0.81455 0.28537,1.12573 -0.12882,0.31118 -0.85084,0.2915 -0.99753,0.59466 -0.14669,0.30317 0.31681,0.85713 0.15274,1.15125 -0.16407,0.29412 -0.87893,0.19076 -1.05982,0.47484 -0.1809,0.28408 0.21516,0.88811 0.0181,1.1612 -0.19711,0.27308 -0.89514,0.0874 -1.10779,0.34859 -0.21265,0.26116 0.11061,0.90708 -0.11686,1.15544 -0.22748,0.24835 -0.89923,-0.0171 -1.14076,0.21762 -0.24154,0.23471 0.005,0.9138 -0.25022,1.13407 -0.25477,0.22026 -0.89117,-0.12136 -1.15831,0.0837 z"
       inkscape:transform-center-x="-0.0014941342"
       inkscape:transform-center-y="-0.0047766941" />
  </g>
</svg>
